<svg width="841" height="180" viewBox="0 0 841 180" fill="none" xmlns="http://www.w3.org/2000/svg">
<path fill-rule="evenodd" clip-rule="evenodd" d="M49.1306 104.869C59.4666 104.168 70.6823 102.847 77.9574 95.4718C85.7997 87.5212 86.8786 75.3821 85.0619 64.3633C82.2593 47.3651 87.3263 29.293 100.263 16.1779C121.529 -5.38158 156.008 -5.38158 177.274 16.1779C198.54 37.7375 198.54 72.6924 177.274 94.2519C163.87 107.84 145.218 112.864 127.933 109.324C116.962 107.076 104.642 107.918 96.778 115.891C89.9567 122.806 88.7232 133.262 88.5322 142.974C88.3487 152.303 84.7458 161.576 77.7236 168.696C63.3022 183.316 39.9207 183.316 25.4993 168.696C11.078 154.075 11.078 130.371 25.4993 115.751C32.0787 109.08 40.523 105.453 49.1306 104.869ZM55.2555 74.1141C42.6154 86.9286 22.1218 86.9286 9.48175 74.1141C-3.15831 61.2996 -3.15831 40.5232 9.48176 27.7087C22.1218 14.8942 42.6154 14.8942 55.2555 27.7087C67.8955 40.5232 67.8955 61.2996 55.2555 74.1141ZM146.33 165.906C138.162 174.186 124.92 174.186 116.752 165.906C108.585 157.626 108.585 144.201 116.752 135.92C124.92 127.64 138.162 127.64 146.33 135.92C154.497 144.201 154.497 157.626 146.33 165.906Z" fill="white"/>
<path d="M840.642 163.767C840.642 165.028 839.62 166.05 838.359 166.05H822.063C820.803 166.05 819.781 165.028 819.781 163.767V18.3851C819.781 17.1245 820.803 16.1025 822.063 16.1025H838.359C839.62 16.1025 840.642 17.1245 840.642 18.3851V163.767Z" fill="white"/>
<path d="M789.165 166.05C788.22 166.05 787.372 165.467 787.034 164.585L772.095 125.64C771.756 124.757 770.909 124.175 769.963 124.175H707.612C706.66 124.175 705.807 124.766 705.474 125.658L690.937 164.566C690.603 165.459 689.751 166.05 688.799 166.05H671.825C670.217 166.05 669.113 164.431 669.701 162.934L726.738 17.5515C727.081 16.6774 727.924 16.1025 728.863 16.1025H749.324C750.262 16.1025 751.106 16.6774 751.448 17.5515L808.486 162.934C809.074 164.431 807.97 166.05 806.361 166.05H789.165ZM740.722 43.3102C739.973 41.346 737.191 41.3535 736.452 43.3218L714.487 101.844C713.927 103.337 715.03 104.929 716.624 104.929H760.917C762.517 104.929 763.62 103.327 763.05 101.833L740.722 43.3102Z" fill="white"/>
<path d="M555.644 114.873C555.644 135.811 566.283 151.25 585.058 151.25C602.999 151.25 614.055 135.388 614.055 114.45C614.055 93.5128 603.208 79.1314 585.267 79.1314C567.326 79.1314 555.644 93.9358 555.644 114.873ZM614.264 152.307C614.264 151.89 613.68 151.747 613.475 152.111C608.354 161.195 598.019 168.804 583.181 168.804C553.766 168.804 535.617 145.117 535.617 114.873C535.617 86.1106 554.81 61.5776 583.181 61.5776C594.003 61.5776 601.795 64.8863 606.983 69.34C608.886 70.9738 613.847 69.4911 613.847 66.983V15.2171C613.847 13.9565 614.869 12.9346 616.129 12.9346H630.965C632.226 12.9346 633.248 13.9565 633.248 15.2171V147.232C633.248 154.006 633.248 160.473 633.248 163.776C633.248 165.036 632.226 166.054 630.965 166.054H616.547C615.286 166.054 614.264 165.034 614.264 163.773C614.264 161.05 614.264 156.356 614.264 152.307Z" fill="white"/>
<path d="M521.419 163.769C521.419 165.029 520.397 166.051 519.136 166.051H504.3C503.04 166.051 502.018 165.029 502.018 163.769V66.6066C502.018 65.346 503.04 64.324 504.3 64.324H519.136C520.397 64.324 521.419 65.346 521.419 66.6066V163.769ZM497.637 25.8326C497.637 17.7959 503.895 11.4512 511.614 11.4512C519.541 11.4512 525.799 17.7959 525.799 25.8326C525.799 33.6578 519.541 40.0025 511.614 40.0025C503.895 40.0025 497.637 33.6578 497.637 25.8326Z" fill="white"/>
<path d="M460.79 163.241C460.79 160.845 456.772 159.587 454.962 161.156C448.631 166.646 439.678 169.227 431.167 169.227C407.803 169.227 393.617 151.462 393.617 128.41V66.6102C393.617 65.3496 394.639 64.3276 395.9 64.3276H410.944C412.205 64.3276 413.227 65.3496 413.227 66.6102V125.449C413.227 139.407 419.485 151.674 435.965 151.674C451.82 151.674 459.747 141.099 459.747 125.66V66.6102C459.747 65.3496 460.769 64.3276 462.03 64.3276H477.074C478.335 64.3276 479.357 65.3496 479.357 66.6102V147.232C479.357 152.996 479.357 160.174 479.357 163.773C479.357 165.034 478.335 166.055 477.074 166.055H463.073C461.812 166.055 460.79 165.035 460.79 163.775C460.79 163.604 460.79 163.425 460.79 163.241Z" fill="white"/>
<path d="M373.166 163.772C373.166 165.032 372.145 166.054 370.884 166.054H355.839C354.579 166.054 353.557 165.032 353.557 163.772V15.2171C353.557 13.9565 354.579 12.9346 355.839 12.9346H370.884C372.145 12.9346 373.166 13.9565 373.166 15.2171V163.772Z" fill="white"/>
<path d="M270.997 163.767C270.997 165.028 269.975 166.05 268.714 166.05H252.835C251.574 166.05 250.552 165.028 250.552 163.767V18.3851C250.552 17.1245 251.574 16.1025 252.835 16.1025H338.182C339.443 16.1025 340.464 17.1245 340.464 18.3851V33.0657C340.464 34.3263 339.443 35.3483 338.182 35.3483H273.279C272.018 35.3483 270.997 36.3702 270.997 37.6308V81.2857C270.997 82.5464 272.018 83.5683 273.279 83.5683H331.715C332.976 83.5683 333.997 84.5902 333.997 85.8509V100.743C333.997 102.004 332.976 103.026 331.715 103.026H273.279C272.018 103.026 270.997 104.047 270.997 105.308V163.767Z" fill="white"/>
</svg>
